<?xml version="1.0" encoding="iso-8859-1"?>
<!-- Generator: Adobe Illustrator 19.0.0, SVG Export Plug-In . SVG Version: 6.00 Build 0)  -->
<svg version="1.1" id="Layer_1" xmlns="http://www.w3.org/2000/svg" xmlns:xlink="http://www.w3.org/1999/xlink" x="0px" y="0px"
	 viewBox="0 0 512 512" style="enable-background:new 0 0 512 512;" xml:space="preserve">
<circle style="fill:#FF7F4F;" cx="256" cy="256" r="256"/>
<path style="fill:#DD4E22;" d="M131.448,398.222l113.526,113.526c3.658,0.155,7.33,0.252,11.026,0.252
	c141.384,0,256-114.616,256-256c0-1.562-0.031-3.115-0.059-4.67L382.838,122.227L131.448,398.222z"/>
<path style="fill:#FEE187;" d="M365.611,398.222H159.892V113.778h205.719c12.06,0,21.837,9.776,21.837,21.835v240.773
	C387.448,388.446,377.672,398.222,365.611,398.222z"/>
<path style="fill:#314A5B;" d="M337.167,398.222H131.448V113.778h205.719c12.06,0,21.837,9.776,21.837,21.835v240.773
	C359.003,388.446,349.227,398.222,337.167,398.222z"/>
<path style="fill:#223849;" d="M337.167,113.778h-81.742v284.444h81.742c12.06,0,21.837-9.776,21.837-21.837V135.614
	C359.003,123.554,349.227,113.778,337.167,113.778z"/>
<rect x="273.67" y="113.778" style="fill:#FFC61B;" width="28.444" height="284.444"/>
<g>
</g>
<g>
</g>
<g>
</g>
<g>
</g>
<g>
</g>
<g>
</g>
<g>
</g>
<g>
</g>
<g>
</g>
<g>
</g>
<g>
</g>
<g>
</g>
<g>
</g>
<g>
</g>
<g>
</g>
</svg>
